<?xml version="1.0" encoding="utf-8"?>
<!-- Generator: Adobe Illustrator 26.2.1, SVG Export Plug-In . SVG Version: 6.00 Build 0)  -->
<svg version="1.1" id="Calque_1" xmlns="http://www.w3.org/2000/svg" xmlns:xlink="http://www.w3.org/1999/xlink" x="0px" y="0px"
	 viewBox="0 0 583.72 141.26" style="enable-background:new 0 0 583.72 141.26;" xml:space="preserve">
<style type="text/css">
	.st0{fill:#27326B;}
</style>
<g>
	<g>
		<path class="st0" d="M83.77,60.71l-22.43,53.1h-0.68L25.04,29.48h-9.36v-1.13h21.76l29.08,69.78L83.1,58.9L71.37,28.35h23.79v1.13
			H84.67l25.36,68.65l28.97-68.65h-10.37v-1.13h21.19v1.13h-9.36l-35.62,84.32h-0.68L83.77,60.71z"/>
		<path class="st0" d="M185.56,113.8h-34.04v-1.13h11.16v-83.2h-11.16v-1.13h34.04v1.13H174.4v83.2h11.16V113.8z"/>
		<path class="st0" d="M249.47,110.65l17.7-24.35h0.79l-8,27.51h-64.93v-1.13h11.16v-83.2h-11.16v-1.13h34.04v1.13h-11.16v83.2
			h27.06C247.33,112.68,248.35,112.11,249.47,110.65z"/>
		<path class="st0" d="M274.61,70.63c0-26.72,21.53-44.64,45.88-44.64c24.35,0,45.88,18.04,45.88,44.64
			c0,26.72-21.53,44.64-45.88,44.64C296.14,115.27,274.61,97.23,274.61,70.63z M353.97,78.63c0-24.35-13.98-51.18-37.09-51.18
			c-15.44,0-29.87,11.84-29.87,35.17c0,24.35,13.98,51.18,37.09,51.18C339.54,113.8,353.97,101.97,353.97,78.63z"/>
		<path class="st0" d="M377.64,70.63c0-26.72,21.53-44.64,45.88-44.64c24.35,0,45.88,18.04,45.88,44.64
			c0,26.72-21.53,44.64-45.88,44.64C399.17,115.27,377.64,97.23,377.64,70.63z M457,78.63c0-24.35-13.98-51.18-37.09-51.18
			c-15.44,0-29.87,11.84-29.87,35.17c0,24.35,13.98,51.18,37.09,51.18C442.57,113.8,457,101.97,457,78.63z"/>
		<path class="st0" d="M513.81,113.8h-34.04v-1.13h11.16v-83.2h-11.16v-1.13h34.04v1.13h-11.16v37.76l46.22-37.76h-12.4v-1.13h27.62
			v1.13h-13.08l-48.36,39.46h15.78l49.6,44.87h-17.7l-47.69-43.18v42.05h11.16V113.8z"/>
	</g>
</g>
</svg>
